<svg width="310" height="310" viewBox="0 0 310 310" fill="none" xmlns="http://www.w3.org/2000/svg">
<path d="M153.896 232.342C158.163 232.342 160.973 229.533 160.973 224.954V165.949L211.132 90.2937C212.277 88.5246 212.693 87.1717 212.693 85.5067C212.693 81.9685 209.675 79.2628 205.825 79.2628C202.911 79.2628 201.246 80.3034 199.477 83.0091L154.104 152.004H153.584L108.212 83.0091C106.443 80.3034 104.778 79.2628 101.864 79.2628C98.0134 79.2628 94.9955 81.9685 94.9955 85.5067C94.9955 87.1717 95.3077 88.5246 96.4524 90.2937L146.716 165.949V224.954C146.716 229.533 149.526 232.342 153.896 232.342Z" fill="white"/>
<path d="M157.391 1.40124L222.114 38.7686L222.109 38.7768L286.817 76.1358L289.228 77.5274V80.2649V155V229.735V232.472L286.817 233.864L222.109 271.223L222.114 271.231L157.391 308.598L155 309.979L152.608 308.598L87.8863 271.231L87.891 271.223L23.1826 233.864L20.7724 232.472V229.735V155V80.2649V77.5274L23.1826 76.1358L87.891 38.7768L87.8863 38.7686L152.608 1.40124L155 0.0205841L157.391 1.40124V1.40124ZM217.331 47.0268L155 11.0402L92.6693 47.0268H92.6506L30.3385 83.0027V155V226.998L92.6506 262.973H92.6693L155 298.96L217.331 262.973H217.349L279.661 226.998V155V83.0027L217.349 47.0268H217.331Z" fill="white"/>
</svg>
